<?xml version="1.0" encoding="UTF-8"?><svg id="a" xmlns="http://www.w3.org/2000/svg" viewBox="0 0 1285.31 568.85"><defs><style>.b{letter-spacing:0em;}.c,.d,.e{fill:#fff;}.d{fill-rule:evenodd;}.e{font-family:SceneStd-Regular, 'Scene Std';font-size:234.98px;}</style></defs><polygon class="c" points="571.2 131.74 630.65 131.74 630.65 94.86 469.64 94.86 469.64 131.74 528.27 131.74 528.27 287.51 571.2 287.51 571.2 131.74 571.2 131.74"/><path class="c" d="M727.75,196.42c0-45.96-21.47-57.52-64.4-57.52h-2.2c-38.81,0-58.07,14.31-64.68,45.14h38.26c3.3-11.83,11.28-16.24,26.97-16.24,8.81,0,15.41,1.38,20.09,4.41,4.68,3.03,7.16,9.63,7.16,20.36v4.4l-47.61,2.48c-35.23,1.93-48.99,16.79-48.99,44.59v1.38c0,31.65,20.64,44.86,51.74,44.86,26.7,0,37.71-8.26,44.04-20.37h1.38v17.61h38.26v-91.1h0ZM631.42,242.65c0-12.38,5.78-17.34,20.37-18.16l37.15-1.93v11.28c0,18.44-9.08,29.72-32.48,29.72-14.59,0-25.04-5.78-25.04-19.27v-1.65h0Z"/><path class="c" d="M808.57,290.27c41.83,0,66.33-12.94,66.33-47.06v-2.2c0-23.94-7.43-40.46-47.06-41.56l-22.84-1.1c-17.62-.83-23.12-4.68-23.12-14.86v-1.38c0-10.74,9.36-14.86,25.05-14.86,14.03,0,22.57,2.2,26.69,14.04h39.63c-6.61-32.2-28.62-42.39-64.95-42.39h-2.48c-38.81,0-62.75,14.04-62.75,45.69v1.93c0,23.95,7.16,40.46,47.06,41.56l22.84,1.1c17.61.83,23.12,4.68,23.12,14.86v1.65c0,12.38-8.26,16.24-27.25,16.24-12.11,0-25.6-2.75-29.17-14.03h-39.36c6.61,30,26.97,42.38,66.88,42.38h1.38Z"/><polygon class="c" points="923.38 249.26 941.55 229.17 943.2 229.17 979.53 287.51 1025.77 287.51 969.07 199.99 1023.29 141.65 976.78 141.65 925.04 201.92 923.38 201.92 923.38 94.86 884.58 94.86 884.58 287.51 923.38 287.51 923.38 249.26 923.38 249.26"/><path class="c" d="M1091.28,94.86v30h38.81v-30h-38.81ZM1091.28,141.65v145.87h38.81v-145.87h-38.81Z"/><path class="c" d="M1285.31,191.74c0-40.18-20.37-52.84-52.02-52.84-23.94,0-36.05,9.36-41.56,26.15h-1.65v-23.39h-38.81v145.87h38.81v-80.37c0-26.7,9.63-34.4,29.17-34.4,8.81,0,15.41,1.93,20.09,5.5,4.68,3.58,7.16,11.56,7.16,23.94v85.32h38.81v-95.78h0Z"/><polygon class="c" points="1036.81 171.1 1007.36 203.7 1035.24 243.62 1080.24 243.62 1052.36 205.35 1081.81 171.1 1036.81 171.1 1036.81 171.1"/><polygon class="d" points="359.58 290.48 179.79 462.24 0 290.48 0 396.82 179.79 568.58 359.58 396.82 359.58 290.48 359.58 290.48"/><polygon class="d" points="227.28 0 179.79 25.84 132.3 0 132.3 69.02 179.79 94.86 227.28 69.02 227.28 0 227.28 0"/><polygon class="d" points="227.11 94.86 179.79 120.6 132.48 94.86 28.27 94.86 28.27 191.51 131.88 191.51 132.12 385.42 179.79 430.96 227.61 385.28 227.37 191.51 331.31 191.51 331.31 94.86 227.11 94.86 227.11 94.86"/><text class="e" transform="translate(487.66 511.52) scale(1.07 1)"><tspan class="b" x="0" y="0">M</tspan><tspan x="187.98" y="0">arine</tspan></text></svg>